<?xml version="1.0" encoding="UTF-8" standalone="no"?>
<!-- Created with Inkscape (http://www.inkscape.org/) -->

<svg
   width="100"
   height="100"
   viewBox="0 0 26.458333 26.458334"
   version="1.1"
   id="svg5"
   inkscape:version="1.1.1 (3bf5ae0d25, 2021-09-20)"
   sodipodi:docname="imagetrack_logo.svg"
   inkscape:export-filename="C:\Users\andrewss\git\imagetrack\server\images\imagetrack_logo.png"
   inkscape:export-xdpi="196.37"
   inkscape:export-ydpi="196.37"
   xmlns:inkscape="http://www.inkscape.org/namespaces/inkscape"
   xmlns:sodipodi="http://sodipodi.sourceforge.net/DTD/sodipodi-0.dtd"
   xmlns="http://www.w3.org/2000/svg"
   xmlns:svg="http://www.w3.org/2000/svg">
  <sodipodi:namedview
     id="namedview7"
     pagecolor="#ffffff"
     bordercolor="#666666"
     borderopacity="1.0"
     inkscape:pageshadow="2"
     inkscape:pageopacity="0.0"
     inkscape:pagecheckerboard="0"
     inkscape:document-units="mm"
     showgrid="false"
     units="px"
     inkscape:zoom="2"
     inkscape:cx="66.25"
     inkscape:cy="76.25"
     inkscape:window-width="1920"
     inkscape:window-height="1017"
     inkscape:window-x="1912"
     inkscape:window-y="-8"
     inkscape:window-maximized="1"
     inkscape:current-layer="layer1" />
  <defs
     id="defs2" />
  <g
     inkscape:label="Layer 1"
     inkscape:groupmode="layer"
     id="layer1">
    <g
       id="g27549"
       transform="matrix(0.22606247,0,0,0.22606247,-7.5609484,-6.907722)">
      <path
         style="opacity:0.4;fill:#ffcc6a;fill-opacity:1;stroke:#f37a0c;stroke-width:1;stroke-linecap:butt;stroke-linejoin:miter;stroke-miterlimit:4;stroke-dasharray:none;stroke-opacity:1"
         d="m 61.948028,87.325276 c -0.433958,5.156515 3.38222,7.476967 8.338623,10.283251 4.956404,2.806283 3.018072,12.000883 7.712204,16.494913 4.775492,5.95033 13.509778,5.61956 19.933779,2.87562 4.304396,-1.23198 8.486756,-3.26557 11.038876,-7.11146 3.82499,-4.96006 7.60579,-11.760294 14.68678,-11.968205 5.92663,-0.423257 13.09383,0.741189 17.43514,-4.335486 4.2736,-5.319388 0.6362,-13.039893 -4.87754,-15.815413 -4.66167,-2.736562 -5.12859,-1.901816 -10.1325,-0.967611 -4.95461,1.370924 -12.57702,-2.004529 -17.01063,-6.065869 -4.4584,-4.886046 -5.87999,-9.585153 -14.685085,-11.290307 -8.8051,-1.705153 -9.496822,11.751483 -15.414067,16.355029 -5.917239,4.603537 -15.400845,3.995145 -17.02558,11.545538 z"
         id="path5232"
         sodipodi:nodetypes="czcccccccczzc" />
      <path
         style="opacity:0.6;fill:#ffcc6a;fill-opacity:1;stroke:#f37a0c;stroke-width:1;stroke-linecap:butt;stroke-linejoin:miter;stroke-miterlimit:4;stroke-dasharray:none;stroke-opacity:1"
         d="m 54.966114,87.32528 c -0.433958,5.156515 3.38222,7.476967 8.338623,10.283251 4.956404,2.806279 3.018072,12.000889 7.712204,16.494929 4.775492,5.9503 13.509796,5.61953 19.933836,2.87561 4.304396,-1.23198 8.486732,-3.26555 11.038853,-7.11146 3.82499,-4.96007 7.60579,-11.7603 14.68678,-11.968211 5.92663,-0.423257 13.09383,0.741189 17.43514,-4.335486 4.2736,-5.319388 0.6362,-13.039893 -4.87754,-15.815413 -4.66167,-2.736562 -5.12859,-1.901816 -10.1325,-0.967611 C 114.1469,78.151813 106.52449,74.77636 102.09088,70.71502 97.632491,65.828974 96.210907,61.129867 87.405797,59.424713 78.600661,57.71956 77.908939,71.176196 71.991694,75.779742 66.074455,80.383279 56.590849,79.774887 54.966114,87.32528 Z"
         id="path5230"
         sodipodi:nodetypes="czcccccccczzc" />
      <path
         style="opacity:0.8;fill:#ffcc6a;fill-opacity:1;stroke:#f37a0c;stroke-width:1;stroke-linecap:butt;stroke-linejoin:miter;stroke-miterlimit:4;stroke-dasharray:none;stroke-opacity:1"
         d="m 47.984176,87.325289 c -0.433958,5.156515 3.38222,7.476967 8.338623,10.283251 4.956404,2.80628 3.018072,12.0009 7.712204,16.49491 4.775492,5.9503 13.509796,5.61953 19.933836,2.87561 4.30441,-1.23198 8.48677,-3.26555 11.03889,-7.11143 3.824979,-4.96008 7.605771,-11.760311 14.686761,-11.968222 5.92663,-0.423257 13.09383,0.741189 17.43514,-4.335486 4.2736,-5.319388 0.6362,-13.039893 -4.87754,-15.815413 -4.66167,-2.736562 -5.12859,-1.901816 -10.1325,-0.967611 -4.95461,1.370924 -12.577015,-2.004529 -17.010611,-6.065869 -4.4584,-4.886046 -5.87999,-9.585153 -14.68512,-11.290307 -8.805136,-1.705153 -9.496858,11.751483 -15.414103,16.355029 -5.917239,4.603537 -15.400845,3.995145 -17.02558,11.545538 z"
         id="path5228"
         sodipodi:nodetypes="czcccccccczzc" />
      <path
         style="fill:#ffcc6a;fill-opacity:1;stroke:#f37a0c;stroke-width:1;stroke-linecap:butt;stroke-linejoin:miter;stroke-miterlimit:4;stroke-dasharray:none;stroke-opacity:1"
         d="m 41.002214,87.325298 c -0.433958,5.156515 3.38222,7.476967 8.338623,10.283251 4.956404,2.806281 3.018072,12.000881 7.712204,16.494891 4.775492,5.9503 13.509796,5.61953 19.933836,2.87561 4.30441,-1.23198 8.48677,-3.26555 11.03889,-7.11143 3.82499,-4.96006 7.60579,-11.760292 14.686783,-11.968203 5.92663,-0.423257 13.09383,0.741189 17.43514,-4.335486 4.2736,-5.319388 0.6362,-13.039893 -4.87754,-15.815413 -4.66167,-2.736562 -5.12859,-1.901816 -10.1325,-0.967611 -4.95461,1.370924 -12.577023,-2.004529 -17.010633,-6.065869 -4.4584,-4.886046 -5.87999,-9.585153 -14.68512,-11.290307 -8.805136,-1.705153 -9.496858,11.751483 -15.414103,16.355029 -5.917239,4.603537 -15.400845,3.995145 -17.02558,11.545538 z"
         id="path371"
         sodipodi:nodetypes="czcccccccczzc" />
      <text
         xml:space="preserve"
         style="font-style:normal;font-variant:normal;font-weight:normal;font-stretch:normal;font-size:13.5799px;line-height:1.25;font-family:Rockwell;-inkscape-font-specification:'Rockwell, Normal';font-variant-ligatures:normal;font-variant-caps:normal;font-variant-numeric:normal;font-variant-east-asian:normal;letter-spacing:0px;word-spacing:0.0042437px;stroke-width:0.42437"
         x="45.162968"
         y="92.161354"
         id="text7507"><tspan
           sodipodi:role="line"
           style="font-style:normal;font-variant:normal;font-weight:normal;font-stretch:normal;font-size:13.5799px;font-family:Rockwell;-inkscape-font-specification:'Rockwell, Normal';font-variant-ligatures:normal;font-variant-caps:normal;font-variant-numeric:normal;font-variant-east-asian:normal;stroke-width:0.42437"
           x="45.162968"
           y="92.161354"
           id="tspan7509">ImageTrack<tspan
   style="fill:#1a1a1a"
   id="tspan12477">.</tspan><tspan
   style="fill:#333333"
   id="tspan14239">.</tspan><tspan
   style="fill:#666666"
   id="tspan15341">.</tspan><tspan
   style="fill:#b3b3b3"
   id="tspan18229">.</tspan><tspan
   style="fill:#cccccc"
   id="tspan20683">.</tspan><tspan
   style="fill:#f2f2f2"
   id="tspan23033" /></tspan></text>
    </g>
  </g>
</svg>
